<?xml version="1.0" encoding="UTF-8" standalone="no"?>
<!DOCTYPE svg PUBLIC "-//W3C//DTD SVG 1.1//EN" "http://www.w3.org/Graphics/SVG/1.1/DTD/svg11.dtd">
<svg xmlns="http://www.w3.org/2000/svg" version="1.1" viewBox="0.00 0.00 500.00 500.00">
<g stroke-width="2.00" fill="none" stroke-linecap="butt">
<path stroke="#9cdbff" vector-effect="non-scaling-stroke" d="
  M 349.00 86.81
  C 359.57 86.82 367.38 87.88 367.38 100.75
  Q 367.38 189.51 367.41 278.27
  A 0.74 0.74 0.0 0 0 368.03 279.00
  C 371.52 279.53 374.80 279.70 378.13 281.00
  Q 380.64 281.98 383.11 282.97
  A 1.38 1.38 0.0 0 0 385.00 281.69
  Q 385.01 179.43 385.00 77.35
  Q 384.99 67.07 384.67 64.67
  C 383.05 52.60 374.47 42.18 362.88 38.65
  Q 358.12 37.20 347.96 37.20
  Q 243.25 37.15 138.54 37.20
  C 133.79 37.20 127.22 38.80 123.22 41.17
  C 115.29 45.87 107.13 56.47 107.14 66.25
  Q 107.18 230.25 107.24 394.25
  C 107.24 401.53 107.09 410.20 110.10 416.67
  C 114.44 426.00 124.62 435.06 135.75 435.05
  Q 239.13 435.00 341.81 434.99
  Q 344.12 434.99 342.03 434.02
  Q 329.76 428.31 316.50 422.30
  Q 306.16 417.62 301.44 406.77
  Q 292.15 385.42 282.72 363.29
  A 1.81 1.80 78.4 0 0 281.06 362.19
  Q 209.88 362.19 138.25 362.09
  C 127.99 362.08 124.57 356.83 124.57 347.00
  Q 124.60 225.50 124.66 104.00
  C 124.67 91.01 128.22 86.86 141.50 86.85
  Q 245.25 86.79 349.00 86.81"
/>
<path stroke="#9cdbff" vector-effect="non-scaling-stroke" d="
  M 215.93 249.35
  L 214.31 243.09
  A 0.81 0.81 0.0 0 1 214.93 242.09
  Q 247.82 235.23 281.00 228.22
  C 287.46 226.85 287.53 224.54 289.78 218.28
  Q 296.34 200.00 302.79 181.70
  C 305.84 173.06 301.22 171.67 293.81 171.67
  Q 246.03 171.67 198.11 171.66
  A 1.08 1.07 -6.8 0 1 197.06 170.84
  Q 193.87 157.83 190.12 144.79
  Q 189.03 141.01 184.51 141.00
  Q 171.08 140.98 157.44 141.01
  A 0.79 0.79 0.0 0 0 156.65 141.80
  L 156.64 151.64
  A 1.01 1.00 -90.0 0 0 157.64 152.65
  L 179.51 152.82
  A 1.13 1.12 83.1 0 1 180.60 153.68
  Q 192.85 204.29 205.17 254.68
  C 205.98 258.01 206.76 261.32 210.24 261.32
  Q 241.42 261.33 272.45 261.32
  A 1.38 1.37 90.0 0 0 273.82 259.94
  L 273.80 250.49
  A 0.82 0.82 0.0 0 0 272.99 249.67
  L 216.34 249.67
  A 0.42 0.42 0.0 0 1 215.93 249.35"
/>
<path stroke="#9cdbff" vector-effect="non-scaling-stroke" d="
  M 383.85 305.03
  C 382.64 301.69 380.89 297.50 378.33 295.08
  C 369.92 287.12 355.64 292.96 356.89 304.51
  Q 357.13 306.71 356.13 304.67
  C 352.64 297.52 344.73 293.52 337.46 297.80
  Q 331.50 301.30 331.12 310.19
  Q 331.08 311.01 330.76 310.26
  Q 321.24 288.04 311.26 265.28
  Q 309.09 260.32 304.72 258.16
  C 299.15 255.40 291.55 257.03 288.52 262.75
  Q 285.31 268.83 287.54 274.00
  Q 307.72 320.94 328.08 367.76
  A 0.42 0.41 -24.0 0 1 327.87 368.30
  L 327.57 368.43
  Q 327.34 368.53 327.21 368.31
  L 303.95 328.76
  A 1.35 1.35 0.0 0 0 301.71 328.64
  C 295.62 336.83 289.39 347.00 293.68 357.55
  Q 298.12 368.45 313.38 403.21
  Q 315.89 408.94 320.35 410.93
  Q 332.82 416.49 345.22 422.22
  C 351.37 425.06 356.29 428.29 358.73 434.04
  Q 363.17 444.51 368.04 454.81
  Q 369.71 458.34 371.02 459.34
  C 374.15 461.74 380.38 458.71 383.76 457.27
  Q 409.09 446.49 434.39 435.63
  C 438.07 434.05 442.69 430.68 440.73 425.99
  Q 436.21 415.15 431.86 404.23
  Q 430.24 400.19 430.33 396.82
  Q 430.76 380.66 430.97 364.50
  Q 431.12 352.34 428.52 345.25
  Q 424.25 333.60 410.25 302.72
  C 408.83 299.60 407.24 296.12 404.98 294.25
  C 399.57 289.79 390.50 290.37 386.65 296.43
  Q 384.53 299.77 384.16 304.98
  Q 384.11 305.73 383.85 305.03"
/>
<path stroke="#9cdbff" vector-effect="non-scaling-stroke" d="
  M 233.77 280.22
  A 10.25 10.25 0.0 0 0 223.52 269.97
  A 10.25 10.25 0.0 0 0 213.27 280.22
  A 10.25 10.25 0.0 0 0 223.52 290.47
  A 10.25 10.25 0.0 0 0 233.77 280.22"
/>
<path stroke="#9cdbff" vector-effect="non-scaling-stroke" d="
  M 265.71 280.15
  A 10.21 10.21 0.0 0 0 255.50 269.94
  A 10.21 10.21 0.0 0 0 245.29 280.15
  A 10.21 10.21 0.0 0 0 255.50 290.36
  A 10.21 10.21 0.0 0 0 265.71 280.15"
/>
<path stroke="#9cdbff" vector-effect="non-scaling-stroke" d="
  M 282.18 66.07
  A 4.38 4.38 0.0 0 0 277.80 61.69
  L 214.36 61.69
  A 4.38 4.38 0.0 0 0 209.98 66.07
  L 209.98 66.23
  A 4.38 4.38 0.0 0 0 214.36 70.61
  L 277.80 70.61
  A 4.38 4.38 0.0 0 0 282.18 66.23
  L 282.18 66.07"
/>
<path stroke="#9cdbff" vector-effect="non-scaling-stroke" d="
  M 265.35 398.56
  A 19.28 19.28 0.0 0 0 246.07 379.28
  A 19.28 19.28 0.0 0 0 226.79 398.56
  A 19.28 19.28 0.0 0 0 246.07 417.84
  A 19.28 19.28 0.0 0 0 265.35 398.56"
/>
</g>
<path fill="#38b6ff" d="
  M 392.76 490.00
  L 112.23 490.00
  A 99.27 99.27 0.0 0 1 12.96 390.73
  L 12.96 110.02
  A 99.27 99.27 0.0 0 1 112.23 10.75
  L 392.76 10.75
  A 99.27 99.27 0.0 0 1 492.03 110.02
  L 492.03 390.73
  A 99.27 99.27 0.0 0 1 392.76 490.00
  Z
  M 349.00 86.81
  C 359.57 86.82 367.38 87.88 367.38 100.75
  Q 367.38 189.51 367.41 278.27
  A 0.74 0.74 0.0 0 0 368.03 279.00
  C 371.52 279.53 374.80 279.70 378.13 281.00
  Q 380.64 281.98 383.11 282.97
  A 1.38 1.38 0.0 0 0 385.00 281.69
  Q 385.01 179.43 385.00 77.35
  Q 384.99 67.07 384.67 64.67
  C 383.05 52.60 374.47 42.18 362.88 38.65
  Q 358.12 37.20 347.96 37.20
  Q 243.25 37.15 138.54 37.20
  C 133.79 37.20 127.22 38.80 123.22 41.17
  C 115.29 45.87 107.13 56.47 107.14 66.25
  Q 107.18 230.25 107.24 394.25
  C 107.24 401.53 107.09 410.20 110.10 416.67
  C 114.44 426.00 124.62 435.06 135.75 435.05
  Q 239.13 435.00 341.81 434.99
  Q 344.12 434.99 342.03 434.02
  Q 329.76 428.31 316.50 422.30
  Q 306.16 417.62 301.44 406.77
  Q 292.15 385.42 282.72 363.29
  A 1.81 1.80 78.4 0 0 281.06 362.19
  Q 209.88 362.19 138.25 362.09
  C 127.99 362.08 124.57 356.83 124.57 347.00
  Q 124.60 225.50 124.66 104.00
  C 124.67 91.01 128.22 86.86 141.50 86.85
  Q 245.25 86.79 349.00 86.81
  Z
  M 215.93 249.35
  L 214.31 243.09
  A 0.81 0.81 0.0 0 1 214.93 242.09
  Q 247.82 235.23 281.00 228.22
  C 287.46 226.85 287.53 224.54 289.78 218.28
  Q 296.34 200.00 302.79 181.70
  C 305.84 173.06 301.22 171.67 293.81 171.67
  Q 246.03 171.67 198.11 171.66
  A 1.08 1.07 -6.8 0 1 197.06 170.84
  Q 193.87 157.83 190.12 144.79
  Q 189.03 141.01 184.51 141.00
  Q 171.08 140.98 157.44 141.01
  A 0.79 0.79 0.0 0 0 156.65 141.80
  L 156.64 151.64
  A 1.01 1.00 -90.0 0 0 157.64 152.65
  L 179.51 152.82
  A 1.13 1.12 83.1 0 1 180.60 153.68
  Q 192.85 204.29 205.17 254.68
  C 205.98 258.01 206.76 261.32 210.24 261.32
  Q 241.42 261.33 272.45 261.32
  A 1.38 1.37 90.0 0 0 273.82 259.94
  L 273.80 250.49
  A 0.82 0.82 0.0 0 0 272.99 249.67
  L 216.34 249.67
  A 0.42 0.42 0.0 0 1 215.93 249.35
  Z
  M 383.85 305.03
  C 382.64 301.69 380.89 297.50 378.33 295.08
  C 369.92 287.12 355.64 292.96 356.89 304.51
  Q 357.13 306.71 356.13 304.67
  C 352.64 297.52 344.73 293.52 337.46 297.80
  Q 331.50 301.30 331.12 310.19
  Q 331.08 311.01 330.76 310.26
  Q 321.24 288.04 311.26 265.28
  Q 309.09 260.32 304.72 258.16
  C 299.15 255.40 291.55 257.03 288.52 262.75
  Q 285.31 268.83 287.54 274.00
  Q 307.72 320.94 328.08 367.76
  A 0.42 0.41 -24.0 0 1 327.87 368.30
  L 327.57 368.43
  Q 327.34 368.53 327.21 368.31
  L 303.95 328.76
  A 1.35 1.35 0.0 0 0 301.71 328.64
  C 295.62 336.83 289.39 347.00 293.68 357.55
  Q 298.12 368.45 313.38 403.21
  Q 315.89 408.94 320.35 410.93
  Q 332.82 416.49 345.22 422.22
  C 351.37 425.06 356.29 428.29 358.73 434.04
  Q 363.17 444.51 368.04 454.81
  Q 369.71 458.34 371.02 459.34
  C 374.15 461.74 380.38 458.71 383.76 457.27
  Q 409.09 446.49 434.39 435.63
  C 438.07 434.05 442.69 430.68 440.73 425.99
  Q 436.21 415.15 431.86 404.23
  Q 430.24 400.19 430.33 396.82
  Q 430.76 380.66 430.97 364.50
  Q 431.12 352.34 428.52 345.25
  Q 424.25 333.60 410.25 302.72
  C 408.83 299.60 407.24 296.12 404.98 294.25
  C 399.57 289.79 390.50 290.37 386.65 296.43
  Q 384.53 299.77 384.16 304.98
  Q 384.11 305.73 383.85 305.03
  Z
  M 233.77 280.22
  A 10.25 10.25 0.0 0 0 223.52 269.97
  A 10.25 10.25 0.0 0 0 213.27 280.22
  A 10.25 10.25 0.0 0 0 223.52 290.47
  A 10.25 10.25 0.0 0 0 233.77 280.22
  Z
  M 265.71 280.15
  A 10.21 10.21 0.0 0 0 255.50 269.94
  A 10.21 10.21 0.0 0 0 245.29 280.15
  A 10.21 10.21 0.0 0 0 255.50 290.36
  A 10.21 10.21 0.0 0 0 265.71 280.15
  Z"
/>
<path fill="#ffffff" d="
  M 367.38 100.75
  C 367.38 87.88 359.57 86.82 349.00 86.81
  Q 245.25 86.79 141.50 86.85
  C 128.22 86.86 124.67 91.01 124.66 104.00
  Q 124.60 225.50 124.57 347.00
  C 124.57 356.83 127.99 362.08 138.25 362.09
  Q 209.88 362.19 281.06 362.19
  A 1.81 1.80 78.4 0 1 282.72 363.29
  Q 292.15 385.42 301.44 406.77
  Q 306.16 417.62 316.50 422.30
  Q 329.76 428.31 342.03 434.02
  Q 344.12 434.99 341.81 434.99
  Q 239.13 435.00 135.75 435.05
  C 124.62 435.06 114.44 426.00 110.10 416.67
  C 107.09 410.20 107.24 401.53 107.24 394.25
  Q 107.18 230.25 107.14 66.25
  C 107.13 56.47 115.29 45.87 123.22 41.17
  C 127.22 38.80 133.79 37.20 138.54 37.20
  Q 243.25 37.15 347.96 37.20
  Q 358.12 37.20 362.88 38.65
  C 374.47 42.18 383.05 52.60 384.67 64.67
  Q 384.99 67.07 385.00 77.35
  Q 385.01 179.43 385.00 281.69
  A 1.38 1.38 0.0 0 1 383.11 282.97
  Q 380.64 281.98 378.13 281.00
  C 374.80 279.70 371.52 279.53 368.03 279.00
  A 0.74 0.74 0.0 0 1 367.41 278.27
  Q 367.38 189.51 367.38 100.75
  Z
  M 282.18 66.07
  A 4.38 4.38 0.0 0 0 277.80 61.69
  L 214.36 61.69
  A 4.38 4.38 0.0 0 0 209.98 66.07
  L 209.98 66.23
  A 4.38 4.38 0.0 0 0 214.36 70.61
  L 277.80 70.61
  A 4.38 4.38 0.0 0 0 282.18 66.23
  L 282.18 66.07
  Z
  M 265.35 398.56
  A 19.28 19.28 0.0 0 0 246.07 379.28
  A 19.28 19.28 0.0 0 0 226.79 398.56
  A 19.28 19.28 0.0 0 0 246.07 417.84
  A 19.28 19.28 0.0 0 0 265.35 398.56
  Z"
/>
<rect fill="#38b6ff" x="209.98" y="61.69" width="72.20" height="8.92" rx="4.38"/>
<path fill="#ffffff" d="
  M 215.93 249.35
  A 0.42 0.42 0.0 0 0 216.34 249.67
  L 272.99 249.67
  A 0.82 0.82 0.0 0 1 273.80 250.49
  L 273.82 259.94
  A 1.38 1.37 -90.0 0 1 272.45 261.32
  Q 241.42 261.33 210.24 261.32
  C 206.76 261.32 205.98 258.01 205.17 254.68
  Q 192.85 204.29 180.60 153.68
  A 1.13 1.12 83.1 0 0 179.51 152.82
  L 157.64 152.65
  A 1.01 1.00 -90.0 0 1 156.64 151.64
  L 156.65 141.80
  A 0.79 0.79 0.0 0 1 157.44 141.01
  Q 171.08 140.98 184.51 141.00
  Q 189.03 141.01 190.12 144.79
  Q 193.87 157.83 197.06 170.84
  A 1.08 1.07 -6.8 0 0 198.11 171.66
  Q 246.03 171.67 293.81 171.67
  C 301.22 171.67 305.84 173.06 302.79 181.70
  Q 296.34 200.00 289.78 218.28
  C 287.53 224.54 287.46 226.85 281.00 228.22
  Q 247.82 235.23 214.93 242.09
  A 0.81 0.81 0.0 0 0 214.31 243.09
  L 215.93 249.35
  Z"
/>
<path fill="#ffffff" d="
  M 383.85 305.03
  Q 384.11 305.73 384.16 304.98
  Q 384.53 299.77 386.65 296.43
  C 390.50 290.37 399.57 289.79 404.98 294.25
  C 407.24 296.12 408.83 299.60 410.25 302.72
  Q 424.25 333.60 428.52 345.25
  Q 431.12 352.34 430.97 364.50
  Q 430.76 380.66 430.33 396.82
  Q 430.24 400.19 431.86 404.23
  Q 436.21 415.15 440.73 425.99
  C 442.69 430.68 438.07 434.05 434.39 435.63
  Q 409.09 446.49 383.76 457.27
  C 380.38 458.71 374.15 461.74 371.02 459.34
  Q 369.71 458.34 368.04 454.81
  Q 363.17 444.51 358.73 434.04
  C 356.29 428.29 351.37 425.06 345.22 422.22
  Q 332.82 416.49 320.35 410.93
  Q 315.89 408.94 313.38 403.21
  Q 298.12 368.45 293.68 357.55
  C 289.39 347.00 295.62 336.83 301.71 328.64
  A 1.35 1.35 0.0 0 1 303.95 328.76
  L 327.21 368.31
  Q 327.34 368.53 327.57 368.43
  L 327.87 368.30
  A 0.42 0.41 -24.0 0 0 328.08 367.76
  Q 307.72 320.94 287.54 274.00
  Q 285.31 268.83 288.52 262.75
  C 291.55 257.03 299.15 255.40 304.72 258.16
  Q 309.09 260.32 311.26 265.28
  Q 321.24 288.04 330.76 310.26
  Q 331.08 311.01 331.12 310.19
  Q 331.50 301.30 337.46 297.80
  C 344.73 293.52 352.64 297.52 356.13 304.67
  Q 357.13 306.71 356.89 304.51
  C 355.64 292.96 369.92 287.12 378.33 295.08
  C 380.89 297.50 382.64 301.69 383.85 305.03
  Z"
/>
<circle fill="#ffffff" cx="223.52" cy="280.22" r="10.25"/>
<circle fill="#ffffff" cx="255.50" cy="280.15" r="10.21"/>
<circle fill="#38b6ff" cx="246.07" cy="398.56" r="19.28"/>
</svg>
