<svg xmlns="http://www.w3.org/2000/svg" xmlns:xlink="http://www.w3.org/1999/xlink" width="500" zoomAndPan="magnify" viewBox="0 0 375 374.999991" height="500" preserveAspectRatio="xMidYMid meet" version="1.0"><defs><g/><clipPath id="a72ddf25f1"><path d="M 5.894531 6.714844 L 369.105469 6.714844 L 369.105469 368.285156 L 5.894531 368.285156 Z M 5.894531 6.714844 " clip-rule="nonzero"/></clipPath><clipPath id="731941e3f4"><path d="M 187.5 6.714844 C 87.203125 6.714844 5.894531 87.65625 5.894531 187.5 C 5.894531 287.34375 87.203125 368.285156 187.5 368.285156 C 287.796875 368.285156 369.105469 287.34375 369.105469 187.5 C 369.105469 87.65625 287.796875 6.714844 187.5 6.714844 Z M 187.5 6.714844 " clip-rule="nonzero"/></clipPath></defs><g clip-path="url(#a72ddf25f1)"><g clip-path="url(#731941e3f4)"><path fill="#0798f3" d="M 5.894531 6.714844 L 369.105469 6.714844 L 369.105469 368.285156 L 5.894531 368.285156 Z M 5.894531 6.714844 " fill-opacity="1" fill-rule="nonzero"/></g></g><g fill="#fd6155" fill-opacity="0.302"><g transform="translate(56.216045, 165.767634)"><g><path d="M 89.492188 -31.375 C 85.761719 -20.046875 80.765625 -14.902344 76.273438 -14.746094 C 74.359375 -14.683594 73.074219 -15.882812 73.011719 -17.796875 C 72.980469 -18.65625 73.230469 -19.71875 73.574219 -20.878906 L 87.539062 -63.472656 C 88.238281 -65.507812 88.640625 -67.722656 88.550781 -70.398438 C 88.246094 -79.386719 81.417969 -85.855469 71.667969 -85.527344 C 65.929688 -85.332031 59.125 -82.800781 54.789062 -77.964844 C 51.671875 -82.359375 48.71875 -84.746094 42.214844 -84.527344 C 36.097656 -84.316406 32.210938 -80.355469 31.84375 -79.867188 C 31 -82.230469 28.257812 -84.050781 24.625 -83.929688 C 21.851562 -83.832031 18.066406 -82.554688 16.851562 -78.78125 L -5.382812 -9.101562 C -5.734375 -8.132812 -5.703125 -7.273438 -5.675781 -6.414062 C -5.53125 -2.207031 -2.105469 0.0703125 1.625 -0.0546875 C 4.875 -0.164062 8.347656 -2.199219 9.738281 -6.457031 L 26.441406 -58.527344 C 28.519531 -65.011719 31.945312 -68.476562 36.246094 -68.625 C 41.21875 -68.792969 42.6875 -65.011719 40.265625 -57.464844 L 25.09375 -10.902344 C 24.660156 -9.546875 24.414062 -8.296875 24.453125 -7.246094 C 24.589844 -3.132812 28.015625 -0.953125 31.648438 -1.074219 C 34.996094 -1.1875 38.46875 -3.222656 39.851562 -7.574219 L 56.03125 -58.285156 C 58.105469 -64.867188 61.78125 -69.394531 66.464844 -69.554688 C 70.195312 -69.679688 72.792969 -66.515625 71.230469 -61.769531 L 59.101562 -24.3125 C 58.324219 -21.796875 57.9375 -19.101562 58.011719 -16.902344 C 58.332031 -7.4375 66.070312 -2.246094 75.347656 -2.558594 C 85.863281 -2.917969 95.671875 -10.140625 100.964844 -28.988281 C 101.128906 -29.761719 101.300781 -30.4375 101.277344 -31.105469 C 101.164062 -34.453125 98.230469 -36.265625 95.359375 -36.167969 C 92.875 -36.085938 90.53125 -34.570312 89.492188 -31.375 Z M 89.492188 -31.375 "/></g></g></g><g fill="#fd6155" fill-opacity="0.302"><g transform="translate(143.321019, 162.809072)"><g><path d="M 47.464844 -28.605469 C 43.636719 -17.371094 33.75 -12.539062 25.621094 -12.261719 C 18.640625 -12.023438 14.128906 -15.222656 13.980469 -19.621094 C 13.949219 -20.480469 14.015625 -21.34375 14.367188 -22.3125 L 15.070312 -24.15625 C 17.902344 -22.53125 21.382812 -21.5 25.207031 -21.628906 C 33.910156 -21.925781 41.371094 -27.632812 43.664062 -36.328125 C 44.078125 -38.160156 44.304688 -39.988281 44.25 -41.613281 C 43.941406 -50.695312 36.53125 -57.433594 25.726562 -57.066406 C 17.21875 -56.777344 9.066406 -51.523438 6.046875 -41.847656 L 0.960938 -25.304688 C 0.273438 -22.984375 -0.128906 -20.671875 -0.0546875 -18.472656 C 0.332031 -7.09375 11.28125 -0.382812 25.242188 -0.855469 C 38.535156 -1.308594 53.421875 -8.324219 59.109375 -26.800781 C 59.371094 -27.574219 59.445312 -28.25 59.425781 -28.820312 C 59.324219 -31.785156 56.59375 -33.320312 53.722656 -33.222656 C 51.046875 -33.132812 48.226562 -31.601562 47.464844 -28.605469 Z M 25.824219 -45.773438 C 28.5 -45.863281 30.296875 -43.722656 30.390625 -40.949219 C 30.417969 -40.1875 30.347656 -39.417969 30.085938 -38.644531 C 29.238281 -35.453125 26.40625 -34.210938 23.539062 -34.113281 C 21.722656 -34.050781 19.894531 -34.371094 18.527344 -35.089844 L 20.339844 -40.898438 C 21.292969 -43.894531 23.625 -45.699219 25.824219 -45.773438 Z M 25.824219 -45.773438 "/></g></g></g><g fill="#fd6155" fill-opacity="0.302"><g transform="translate(188.642387, 161.26971)"><g><path d="M 47.535156 -29.375 C 44.222656 -19.882812 39.582031 -12.734375 35.566406 -12.597656 C 34.226562 -12.554688 33.515625 -13.773438 33.46875 -15.113281 C 33.449219 -15.6875 33.519531 -16.453125 33.78125 -17.230469 L 38.890625 -33.101562 C 39.398438 -35.035156 39.722656 -36.769531 39.667969 -38.394531 C 39.359375 -47.476562 27.753906 -50.914062 22.34375 -52.355469 C 22.605469 -53.128906 22.671875 -53.996094 22.644531 -54.757812 C 22.496094 -59.15625 18.449219 -62.753906 14.148438 -62.609375 C 8.503906 -62.417969 5.328125 -57.332031 5.511719 -51.878906 C 5.59375 -49.488281 6.539062 -47.03125 8.132812 -45.171875 L 1.792969 -26.097656 C 1.628906 -25.328125 1.558594 -24.558594 1.578125 -23.984375 C 1.6875 -20.832031 4.226562 -19.289062 6.902344 -19.378906 C 9.582031 -19.472656 12.300781 -21.09375 13.347656 -24.195312 L 18.214844 -38.71875 C 20.917969 -37.949219 24.480469 -37.398438 24.589844 -34.148438 C 24.605469 -33.671875 24.53125 -33.09375 24.363281 -32.417969 L 20.550781 -20.609375 C 19.859375 -18.382812 19.546875 -16.363281 19.613281 -14.449219 C 19.894531 -6.132812 26.675781 -0.90625 34.613281 -1.175781 C 45.035156 -1.53125 54.1875 -11.125 59.28125 -27.476562 C 59.449219 -28.058594 59.53125 -28.539062 59.515625 -29.015625 C 59.417969 -31.886719 56.195312 -33.691406 53.136719 -33.585938 C 50.652344 -33.5 48.300781 -32.273438 47.535156 -29.375 Z M 47.535156 -29.375 "/></g></g></g><g fill="#fd6155" fill-opacity="0.302"><g transform="translate(233.868138, 159.733596)"><g><path d="M 45.3125 -29.96875 C 40.855469 -17.46875 31.738281 -12.566406 24.472656 -12.320312 C 17.875 -12.09375 13.535156 -15.777344 13.371094 -20.652344 C 13.335938 -21.703125 13.488281 -22.859375 13.828125 -24.113281 L 19.097656 -40.855469 C 19.878906 -43.179688 21.746094 -44.675781 23.273438 -44.730469 C 25.1875 -44.792969 26.183594 -43.679688 26.238281 -42.054688 C 26.273438 -41.003906 25.929688 -39.84375 25.304688 -38.480469 C 24.859375 -37.507812 24.605469 -36.542969 24.636719 -35.585938 C 24.75 -32.238281 27.996094 -29.765625 31.339844 -29.878906 C 34.113281 -29.972656 37.019531 -31.792969 38.589844 -36.25 C 39.460938 -38.867188 39.765625 -41.171875 39.691406 -43.371094 C 39.382812 -52.359375 31.75 -57.269531 23.527344 -56.992188 C 15.972656 -56.734375 7.996094 -52.058594 4.894531 -41.902344 L -0.0117188 -25.65625 C -0.695312 -23.332031 -1 -21.027344 -0.929688 -18.921875 C -0.554688 -7.925781 9.273438 -0.316406 23.332031 -0.792969 C 37.480469 -1.273438 51.167969 -9.777344 56.699219 -27.390625 C 56.960938 -28.070312 57.035156 -28.742188 57.015625 -29.316406 C 56.910156 -32.375 53.882812 -34.1875 50.917969 -34.085938 C 48.527344 -34.003906 46.175781 -32.777344 45.3125 -29.96875 Z M 45.3125 -29.96875 "/></g></g></g><g fill="#fd6155" fill-opacity="0.302"><g transform="translate(276.607898, 158.28192)"><g><path d="M 58.855469 -34.355469 C 56.175781 -34.265625 53.269531 -32.539062 52.242188 -28.867188 C 48.914062 -16.976562 43.023438 -12.851562 38.722656 -12.707031 C 37.09375 -12.652344 36.109375 -13.480469 36.058594 -15.007812 C 36.03125 -15.773438 36.191406 -16.738281 36.441406 -17.796875 L 46.097656 -49.140625 C 46.441406 -50.304688 46.597656 -51.359375 46.566406 -52.316406 C 46.421875 -56.523438 42.90625 -58.605469 39.367188 -58.488281 C 36.691406 -58.394531 33.960938 -57.058594 32.511719 -54.617188 C 30.460938 -55.789062 26.683594 -57.097656 21.808594 -56.933594 C 15.496094 -56.71875 8.726562 -53.042969 6.398438 -45.59375 L -1.71875 -19.566406 C -2.234375 -17.824219 -2.558594 -16.089844 -2.5 -14.371094 C -2.230469 -6.433594 4.398438 -0.148438 12.8125 -0.433594 C 17.308594 -0.585938 21.828125 -2.75 25.257812 -6.027344 C 28.46875 -1.734375 35.28125 -1.199219 38.152344 -1.296875 C 46.085938 -1.566406 56.566406 -5.941406 62.15625 -21.640625 C 63.371094 -25.414062 64.339844 -27.839844 64.28125 -29.5625 C 64.171875 -32.8125 61.628906 -34.449219 58.855469 -34.355469 Z M 27.269531 -34.238281 L 23.164062 -19.835938 C 21.367188 -13.554688 17.78125 -11.996094 15.773438 -11.925781 C 13.667969 -11.855469 12.570312 -13.160156 12.496094 -15.359375 C 12.457031 -16.601562 12.703125 -17.757812 12.960938 -18.628906 L 18.425781 -38.054688 C 20.046875 -43.949219 22.695312 -44.804688 24.226562 -44.859375 C 26.042969 -44.917969 28.113281 -43.171875 28.222656 -39.917969 C 28.273438 -38.484375 27.953125 -36.65625 27.269531 -34.238281 Z M 27.269531 -34.238281 "/></g></g></g><g fill="#fd6155" fill-opacity="0.502"><g transform="translate(56.12586, 165.689089)"><g><path d="M 89.492188 -31.375 C 85.761719 -20.046875 80.765625 -14.902344 76.273438 -14.746094 C 74.359375 -14.683594 73.074219 -15.882812 73.011719 -17.796875 C 72.980469 -18.65625 73.230469 -19.71875 73.574219 -20.878906 L 87.539062 -63.472656 C 88.238281 -65.507812 88.640625 -67.722656 88.550781 -70.398438 C 88.246094 -79.386719 81.417969 -85.855469 71.667969 -85.527344 C 65.929688 -85.332031 59.125 -82.800781 54.789062 -77.964844 C 51.671875 -82.359375 48.71875 -84.746094 42.214844 -84.527344 C 36.097656 -84.316406 32.210938 -80.355469 31.84375 -79.867188 C 31 -82.230469 28.257812 -84.050781 24.625 -83.929688 C 21.851562 -83.832031 18.066406 -82.554688 16.851562 -78.78125 L -5.382812 -9.101562 C -5.734375 -8.132812 -5.703125 -7.273438 -5.675781 -6.414062 C -5.53125 -2.207031 -2.105469 0.0703125 1.625 -0.0546875 C 4.875 -0.164062 8.347656 -2.199219 9.738281 -6.457031 L 26.441406 -58.527344 C 28.519531 -65.011719 31.945312 -68.476562 36.246094 -68.625 C 41.21875 -68.792969 42.6875 -65.011719 40.265625 -57.464844 L 25.09375 -10.902344 C 24.660156 -9.546875 24.414062 -8.296875 24.453125 -7.246094 C 24.589844 -3.132812 28.015625 -0.953125 31.648438 -1.074219 C 34.996094 -1.1875 38.46875 -3.222656 39.851562 -7.574219 L 56.03125 -58.285156 C 58.105469 -64.867188 61.78125 -69.394531 66.464844 -69.554688 C 70.195312 -69.679688 72.792969 -66.515625 71.230469 -61.769531 L 59.101562 -24.3125 C 58.324219 -21.796875 57.9375 -19.101562 58.011719 -16.902344 C 58.332031 -7.4375 66.070312 -2.246094 75.347656 -2.558594 C 85.863281 -2.917969 95.671875 -10.140625 100.964844 -28.988281 C 101.128906 -29.761719 101.300781 -30.4375 101.277344 -31.105469 C 101.164062 -34.453125 98.230469 -36.265625 95.359375 -36.167969 C 92.875 -36.085938 90.53125 -34.570312 89.492188 -31.375 Z M 89.492188 -31.375 "/></g></g></g><g fill="#fd6155" fill-opacity="0.502"><g transform="translate(143.230834, 162.730527)"><g><path d="M 47.464844 -28.605469 C 43.636719 -17.371094 33.75 -12.539062 25.621094 -12.261719 C 18.640625 -12.023438 14.128906 -15.222656 13.980469 -19.621094 C 13.949219 -20.480469 14.015625 -21.34375 14.367188 -22.3125 L 15.070312 -24.15625 C 17.902344 -22.53125 21.382812 -21.5 25.207031 -21.628906 C 33.910156 -21.925781 41.371094 -27.632812 43.664062 -36.328125 C 44.078125 -38.160156 44.304688 -39.988281 44.25 -41.613281 C 43.941406 -50.695312 36.53125 -57.433594 25.726562 -57.066406 C 17.21875 -56.777344 9.066406 -51.523438 6.046875 -41.847656 L 0.960938 -25.304688 C 0.273438 -22.984375 -0.128906 -20.671875 -0.0546875 -18.472656 C 0.332031 -7.09375 11.28125 -0.382812 25.242188 -0.855469 C 38.535156 -1.308594 53.421875 -8.324219 59.109375 -26.800781 C 59.371094 -27.574219 59.445312 -28.25 59.425781 -28.820312 C 59.324219 -31.785156 56.59375 -33.320312 53.722656 -33.222656 C 51.046875 -33.132812 48.226562 -31.601562 47.464844 -28.605469 Z M 25.824219 -45.773438 C 28.5 -45.863281 30.296875 -43.722656 30.390625 -40.949219 C 30.417969 -40.1875 30.347656 -39.417969 30.085938 -38.644531 C 29.238281 -35.453125 26.40625 -34.210938 23.539062 -34.113281 C 21.722656 -34.050781 19.894531 -34.371094 18.527344 -35.089844 L 20.339844 -40.898438 C 21.292969 -43.894531 23.625 -45.699219 25.824219 -45.773438 Z M 25.824219 -45.773438 "/></g></g></g><g fill="#fd6155" fill-opacity="0.502"><g transform="translate(188.552202, 161.191165)"><g><path d="M 47.535156 -29.375 C 44.222656 -19.882812 39.582031 -12.734375 35.566406 -12.597656 C 34.226562 -12.554688 33.515625 -13.773438 33.46875 -15.113281 C 33.449219 -15.6875 33.519531 -16.453125 33.78125 -17.230469 L 38.890625 -33.101562 C 39.398438 -35.035156 39.722656 -36.769531 39.667969 -38.394531 C 39.359375 -47.476562 27.753906 -50.914062 22.34375 -52.355469 C 22.605469 -53.128906 22.671875 -53.996094 22.644531 -54.757812 C 22.496094 -59.15625 18.449219 -62.753906 14.148438 -62.609375 C 8.503906 -62.417969 5.328125 -57.332031 5.511719 -51.878906 C 5.59375 -49.488281 6.539062 -47.03125 8.132812 -45.171875 L 1.792969 -26.097656 C 1.628906 -25.328125 1.558594 -24.558594 1.578125 -23.984375 C 1.6875 -20.832031 4.226562 -19.289062 6.902344 -19.378906 C 9.582031 -19.472656 12.300781 -21.09375 13.347656 -24.195312 L 18.214844 -38.71875 C 20.917969 -37.949219 24.480469 -37.398438 24.589844 -34.148438 C 24.605469 -33.671875 24.53125 -33.09375 24.363281 -32.417969 L 20.550781 -20.609375 C 19.859375 -18.382812 19.546875 -16.363281 19.613281 -14.449219 C 19.894531 -6.132812 26.675781 -0.90625 34.613281 -1.175781 C 45.035156 -1.53125 54.1875 -11.125 59.28125 -27.476562 C 59.449219 -28.058594 59.53125 -28.539062 59.515625 -29.015625 C 59.417969 -31.886719 56.195312 -33.691406 53.136719 -33.585938 C 50.652344 -33.5 48.300781 -32.273438 47.535156 -29.375 Z M 47.535156 -29.375 "/></g></g></g><g fill="#fd6155" fill-opacity="0.502"><g transform="translate(233.777953, 159.655051)"><g><path d="M 45.3125 -29.96875 C 40.855469 -17.46875 31.738281 -12.566406 24.472656 -12.320312 C 17.875 -12.09375 13.535156 -15.777344 13.371094 -20.652344 C 13.335938 -21.703125 13.488281 -22.859375 13.828125 -24.113281 L 19.097656 -40.855469 C 19.878906 -43.179688 21.746094 -44.675781 23.273438 -44.730469 C 25.1875 -44.792969 26.183594 -43.679688 26.238281 -42.054688 C 26.273438 -41.003906 25.929688 -39.84375 25.304688 -38.480469 C 24.859375 -37.507812 24.605469 -36.542969 24.636719 -35.585938 C 24.75 -32.238281 27.996094 -29.765625 31.339844 -29.878906 C 34.113281 -29.972656 37.019531 -31.792969 38.589844 -36.25 C 39.460938 -38.867188 39.765625 -41.171875 39.691406 -43.371094 C 39.382812 -52.359375 31.75 -57.269531 23.527344 -56.992188 C 15.972656 -56.734375 7.996094 -52.058594 4.894531 -41.902344 L -0.0117188 -25.65625 C -0.695312 -23.332031 -1 -21.027344 -0.929688 -18.921875 C -0.554688 -7.925781 9.273438 -0.316406 23.332031 -0.792969 C 37.480469 -1.273438 51.167969 -9.777344 56.699219 -27.390625 C 56.960938 -28.070312 57.035156 -28.742188 57.015625 -29.316406 C 56.910156 -32.375 53.882812 -34.1875 50.917969 -34.085938 C 48.527344 -34.003906 46.175781 -32.777344 45.3125 -29.96875 Z M 45.3125 -29.96875 "/></g></g></g><g fill="#fd6155" fill-opacity="0.502"><g transform="translate(276.517713, 158.203375)"><g><path d="M 58.855469 -34.355469 C 56.175781 -34.265625 53.269531 -32.539062 52.242188 -28.867188 C 48.914062 -16.976562 43.023438 -12.851562 38.722656 -12.707031 C 37.09375 -12.652344 36.109375 -13.480469 36.058594 -15.007812 C 36.03125 -15.773438 36.191406 -16.738281 36.441406 -17.796875 L 46.097656 -49.140625 C 46.441406 -50.304688 46.597656 -51.359375 46.566406 -52.316406 C 46.421875 -56.523438 42.90625 -58.605469 39.367188 -58.488281 C 36.691406 -58.394531 33.960938 -57.058594 32.511719 -54.617188 C 30.460938 -55.789062 26.683594 -57.097656 21.808594 -56.933594 C 15.496094 -56.71875 8.726562 -53.042969 6.398438 -45.59375 L -1.71875 -19.566406 C -2.234375 -17.824219 -2.558594 -16.089844 -2.5 -14.371094 C -2.230469 -6.433594 4.398438 -0.148438 12.8125 -0.433594 C 17.308594 -0.585938 21.828125 -2.75 25.257812 -6.027344 C 28.46875 -1.734375 35.28125 -1.199219 38.152344 -1.296875 C 46.085938 -1.566406 56.566406 -5.941406 62.15625 -21.640625 C 63.371094 -25.414062 64.339844 -27.839844 64.28125 -29.5625 C 64.171875 -32.8125 61.628906 -34.449219 58.855469 -34.355469 Z M 27.269531 -34.238281 L 23.164062 -19.835938 C 21.367188 -13.554688 17.78125 -11.996094 15.773438 -11.925781 C 13.667969 -11.855469 12.570312 -13.160156 12.496094 -15.359375 C 12.457031 -16.601562 12.703125 -17.757812 12.960938 -18.628906 L 18.425781 -38.054688 C 20.046875 -43.949219 22.695312 -44.804688 24.226562 -44.859375 C 26.042969 -44.917969 28.113281 -43.171875 28.222656 -39.917969 C 28.273438 -38.484375 27.953125 -36.65625 27.269531 -34.238281 Z M 27.269531 -34.238281 "/></g></g></g><g fill="#f6f3e4" fill-opacity="1"><g transform="translate(56.035675, 165.610537)"><g><path d="M 89.492188 -31.375 C 85.761719 -20.046875 80.765625 -14.902344 76.273438 -14.746094 C 74.359375 -14.683594 73.074219 -15.882812 73.011719 -17.796875 C 72.980469 -18.65625 73.230469 -19.71875 73.574219 -20.878906 L 87.539062 -63.472656 C 88.238281 -65.507812 88.640625 -67.722656 88.550781 -70.398438 C 88.246094 -79.386719 81.417969 -85.855469 71.667969 -85.527344 C 65.929688 -85.332031 59.125 -82.800781 54.789062 -77.964844 C 51.671875 -82.359375 48.71875 -84.746094 42.214844 -84.527344 C 36.097656 -84.316406 32.210938 -80.355469 31.84375 -79.867188 C 31 -82.230469 28.257812 -84.050781 24.625 -83.929688 C 21.851562 -83.832031 18.066406 -82.554688 16.851562 -78.78125 L -5.382812 -9.101562 C -5.734375 -8.132812 -5.703125 -7.273438 -5.675781 -6.414062 C -5.53125 -2.207031 -2.105469 0.0703125 1.625 -0.0546875 C 4.875 -0.164062 8.347656 -2.199219 9.738281 -6.457031 L 26.441406 -58.527344 C 28.519531 -65.011719 31.945312 -68.476562 36.246094 -68.625 C 41.21875 -68.792969 42.6875 -65.011719 40.265625 -57.464844 L 25.09375 -10.902344 C 24.660156 -9.546875 24.414062 -8.296875 24.453125 -7.246094 C 24.589844 -3.132812 28.015625 -0.953125 31.648438 -1.074219 C 34.996094 -1.1875 38.46875 -3.222656 39.851562 -7.574219 L 56.03125 -58.285156 C 58.105469 -64.867188 61.78125 -69.394531 66.464844 -69.554688 C 70.195312 -69.679688 72.792969 -66.515625 71.230469 -61.769531 L 59.101562 -24.3125 C 58.324219 -21.796875 57.9375 -19.101562 58.011719 -16.902344 C 58.332031 -7.4375 66.070312 -2.246094 75.347656 -2.558594 C 85.863281 -2.917969 95.671875 -10.140625 100.964844 -28.988281 C 101.128906 -29.761719 101.300781 -30.4375 101.277344 -31.105469 C 101.164062 -34.453125 98.230469 -36.265625 95.359375 -36.167969 C 92.875 -36.085938 90.53125 -34.570312 89.492188 -31.375 Z M 89.492188 -31.375 "/></g></g></g><g fill="#f6f3e4" fill-opacity="1"><g transform="translate(143.140649, 162.651975)"><g><path d="M 47.464844 -28.605469 C 43.636719 -17.371094 33.75 -12.539062 25.621094 -12.261719 C 18.640625 -12.023438 14.128906 -15.222656 13.980469 -19.621094 C 13.949219 -20.480469 14.015625 -21.34375 14.367188 -22.3125 L 15.070312 -24.15625 C 17.902344 -22.53125 21.382812 -21.5 25.207031 -21.628906 C 33.910156 -21.925781 41.371094 -27.632812 43.664062 -36.328125 C 44.078125 -38.160156 44.304688 -39.988281 44.25 -41.613281 C 43.941406 -50.695312 36.53125 -57.433594 25.726562 -57.066406 C 17.21875 -56.777344 9.066406 -51.523438 6.046875 -41.847656 L 0.960938 -25.304688 C 0.273438 -22.984375 -0.128906 -20.671875 -0.0546875 -18.472656 C 0.332031 -7.09375 11.28125 -0.382812 25.242188 -0.855469 C 38.535156 -1.308594 53.421875 -8.324219 59.109375 -26.800781 C 59.371094 -27.574219 59.445312 -28.25 59.425781 -28.820312 C 59.324219 -31.785156 56.59375 -33.320312 53.722656 -33.222656 C 51.046875 -33.132812 48.226562 -31.601562 47.464844 -28.605469 Z M 25.824219 -45.773438 C 28.5 -45.863281 30.296875 -43.722656 30.390625 -40.949219 C 30.417969 -40.1875 30.347656 -39.417969 30.085938 -38.644531 C 29.238281 -35.453125 26.40625 -34.210938 23.539062 -34.113281 C 21.722656 -34.050781 19.894531 -34.371094 18.527344 -35.089844 L 20.339844 -40.898438 C 21.292969 -43.894531 23.625 -45.699219 25.824219 -45.773438 Z M 25.824219 -45.773438 "/></g></g></g><g fill="#f6f3e4" fill-opacity="1"><g transform="translate(188.462017, 161.112613)"><g><path d="M 47.535156 -29.375 C 44.222656 -19.882812 39.582031 -12.734375 35.566406 -12.597656 C 34.226562 -12.554688 33.515625 -13.773438 33.46875 -15.113281 C 33.449219 -15.6875 33.519531 -16.453125 33.78125 -17.230469 L 38.890625 -33.101562 C 39.398438 -35.035156 39.722656 -36.769531 39.667969 -38.394531 C 39.359375 -47.476562 27.753906 -50.914062 22.34375 -52.355469 C 22.605469 -53.128906 22.671875 -53.996094 22.644531 -54.757812 C 22.496094 -59.15625 18.449219 -62.753906 14.148438 -62.609375 C 8.503906 -62.417969 5.328125 -57.332031 5.511719 -51.878906 C 5.59375 -49.488281 6.539062 -47.03125 8.132812 -45.171875 L 1.792969 -26.097656 C 1.628906 -25.328125 1.558594 -24.558594 1.578125 -23.984375 C 1.6875 -20.832031 4.226562 -19.289062 6.902344 -19.378906 C 9.582031 -19.472656 12.300781 -21.09375 13.347656 -24.195312 L 18.214844 -38.71875 C 20.917969 -37.949219 24.480469 -37.398438 24.589844 -34.148438 C 24.605469 -33.671875 24.53125 -33.09375 24.363281 -32.417969 L 20.550781 -20.609375 C 19.859375 -18.382812 19.546875 -16.363281 19.613281 -14.449219 C 19.894531 -6.132812 26.675781 -0.90625 34.613281 -1.175781 C 45.035156 -1.53125 54.1875 -11.125 59.28125 -27.476562 C 59.449219 -28.058594 59.53125 -28.539062 59.515625 -29.015625 C 59.417969 -31.886719 56.195312 -33.691406 53.136719 -33.585938 C 50.652344 -33.5 48.300781 -32.273438 47.535156 -29.375 Z M 47.535156 -29.375 "/></g></g></g><g fill="#f6f3e4" fill-opacity="1"><g transform="translate(233.687768, 159.576499)"><g><path d="M 45.3125 -29.96875 C 40.855469 -17.46875 31.738281 -12.566406 24.472656 -12.320312 C 17.875 -12.09375 13.535156 -15.777344 13.371094 -20.652344 C 13.335938 -21.703125 13.488281 -22.859375 13.828125 -24.113281 L 19.097656 -40.855469 C 19.878906 -43.179688 21.746094 -44.675781 23.273438 -44.730469 C 25.1875 -44.792969 26.183594 -43.679688 26.238281 -42.054688 C 26.273438 -41.003906 25.929688 -39.84375 25.304688 -38.480469 C 24.859375 -37.507812 24.605469 -36.542969 24.636719 -35.585938 C 24.75 -32.238281 27.996094 -29.765625 31.339844 -29.878906 C 34.113281 -29.972656 37.019531 -31.792969 38.589844 -36.25 C 39.460938 -38.867188 39.765625 -41.171875 39.691406 -43.371094 C 39.382812 -52.359375 31.75 -57.269531 23.527344 -56.992188 C 15.972656 -56.734375 7.996094 -52.058594 4.894531 -41.902344 L -0.0117188 -25.65625 C -0.695312 -23.332031 -1 -21.027344 -0.929688 -18.921875 C -0.554688 -7.925781 9.273438 -0.316406 23.332031 -0.792969 C 37.480469 -1.273438 51.167969 -9.777344 56.699219 -27.390625 C 56.960938 -28.070312 57.035156 -28.742188 57.015625 -29.316406 C 56.910156 -32.375 53.882812 -34.1875 50.917969 -34.085938 C 48.527344 -34.003906 46.175781 -32.777344 45.3125 -29.96875 Z M 45.3125 -29.96875 "/></g></g></g><g fill="#f6f3e4" fill-opacity="1"><g transform="translate(276.427528, 158.124823)"><g><path d="M 58.855469 -34.355469 C 56.175781 -34.265625 53.269531 -32.539062 52.242188 -28.867188 C 48.914062 -16.976562 43.023438 -12.851562 38.722656 -12.707031 C 37.09375 -12.652344 36.109375 -13.480469 36.058594 -15.007812 C 36.03125 -15.773438 36.191406 -16.738281 36.441406 -17.796875 L 46.097656 -49.140625 C 46.441406 -50.304688 46.597656 -51.359375 46.566406 -52.316406 C 46.421875 -56.523438 42.90625 -58.605469 39.367188 -58.488281 C 36.691406 -58.394531 33.960938 -57.058594 32.511719 -54.617188 C 30.460938 -55.789062 26.683594 -57.097656 21.808594 -56.933594 C 15.496094 -56.71875 8.726562 -53.042969 6.398438 -45.59375 L -1.71875 -19.566406 C -2.234375 -17.824219 -2.558594 -16.089844 -2.5 -14.371094 C -2.230469 -6.433594 4.398438 -0.148438 12.8125 -0.433594 C 17.308594 -0.585938 21.828125 -2.75 25.257812 -6.027344 C 28.46875 -1.734375 35.28125 -1.199219 38.152344 -1.296875 C 46.085938 -1.566406 56.566406 -5.941406 62.15625 -21.640625 C 63.371094 -25.414062 64.339844 -27.839844 64.28125 -29.5625 C 64.171875 -32.8125 61.628906 -34.449219 58.855469 -34.355469 Z M 27.269531 -34.238281 L 23.164062 -19.835938 C 21.367188 -13.554688 17.78125 -11.996094 15.773438 -11.925781 C 13.667969 -11.855469 12.570312 -13.160156 12.496094 -15.359375 C 12.457031 -16.601562 12.703125 -17.757812 12.960938 -18.628906 L 18.425781 -38.054688 C 20.046875 -43.949219 22.695312 -44.804688 24.226562 -44.859375 C 26.042969 -44.917969 28.113281 -43.171875 28.222656 -39.917969 C 28.273438 -38.484375 27.953125 -36.65625 27.269531 -34.238281 Z M 27.269531 -34.238281 "/></g></g></g><g fill="#fd6155" fill-opacity="0.302"><g transform="translate(45.375369, 245.674801)"><g><path d="M 11.710938 -14.945312 L 20.957031 -42.175781 C 21.289062 -43.128906 21.453125 -43.992188 21.441406 -44.851562 C 21.402344 -48.382812 18.273438 -50.757812 15.085938 -50.722656 C 12.675781 -50.691406 10.109375 -49.199219 8.945312 -45.742188 L -1.132812 -16.003906 C -1.714844 -14.359375 -1.953125 -12.722656 -1.9375 -11.171875 C -1.871094 -5.316406 2.3125 -1.144531 7.921875 -0.0898438 C -2.554688 2.355469 -12.925781 6.78125 -12.800781 17.371094 C -12.707031 25.722656 -4.894531 31.140625 3.542969 31.046875 C 12.066406 30.945312 20.023438 26.292969 23.523438 16.261719 C 24.6875 12.632812 26.019531 8.828125 27.273438 5.28125 C 39.539062 1.265625 52.117188 -5.59375 57.851562 -23.746094 C 58.101562 -24.4375 58.179688 -25.125 58.171875 -25.730469 C 58.140625 -28.65625 55.878906 -30.351562 53.296875 -30.324219 C 50.972656 -30.296875 48.492188 -28.804688 47.328125 -25.429688 C 44.242188 -16.613281 38.53125 -11.378906 31.855469 -7.859375 L 43.59375 -43.042969 C 43.84375 -43.820312 43.921875 -44.507812 43.914062 -45.113281 C 43.871094 -48.640625 40.746094 -51.015625 37.558594 -50.980469 C 35.148438 -50.953125 32.582031 -49.457031 31.417969 -46 L 21.851562 -16.785156 C 19.148438 -12.105469 16.15625 -10.347656 13.832031 -10.320312 C 12.28125 -10.300781 11.324219 -11.238281 11.304688 -12.789062 C 11.296875 -13.390625 11.460938 -14.167969 11.710938 -14.945312 Z M 11.5625 9.425781 L 9.5625 15.304688 C 8.394531 18.503906 5.742188 20.167969 3.160156 20.199219 C 1.179688 20.222656 0.304688 19.027344 0.289062 17.476562 C 0.28125 16.960938 0.359375 16.269531 0.609375 15.664062 C 1.78125 12.636719 5.980469 10.953125 11.5625 9.425781 Z M 11.5625 9.425781 "/></g></g></g><g fill="#fd6155" fill-opacity="0.302"><g transform="translate(90.145464, 245.158783)"><g/></g></g><g fill="#fd6155" fill-opacity="0.302"><g transform="translate(123.034258, 244.779708)"><g><path d="M 52.707031 -58.992188 C 52.609375 -67.773438 44.855469 -75.261719 33.835938 -75.132812 C 25.3125 -75.035156 14.859375 -70.351562 10.367188 -56.953125 L -0.121094 -25.574219 C -1.121094 -22.632812 -1.433594 -19.875 -1.40625 -17.292969 C -1.289062 -7.304688 5.671875 -1.097656 15.410156 -0.175781 C 3.050781 3.152344 -6.039062 6.527344 -5.914062 17.289062 C -5.828125 24.695312 0.273438 31.082031 10.433594 30.964844 C 18.957031 30.867188 26.824219 26.214844 30.324219 16.183594 C 31.488281 12.554688 32.910156 8.75 34.160156 5.203125 C 46.425781 1.1875 59.007812 -5.675781 64.652344 -23.824219 C 64.902344 -24.601562 64.980469 -25.289062 64.972656 -25.894531 C 64.941406 -28.734375 62.597656 -30.429688 60.097656 -30.402344 C 57.773438 -30.375 55.292969 -28.882812 54.128906 -25.511719 C 51.128906 -16.605469 45.335938 -11.371094 38.574219 -7.851562 L 48.011719 -33.1875 C 48.761719 -35.4375 49.253906 -37.421875 49.234375 -39.058594 C 49.207031 -41.46875 48.070312 -43.179688 44.875 -43.917969 C 44.011719 -44.164062 43.148438 -44.242188 42.460938 -44.234375 C 38.070312 -44.183594 37.171875 -39.867188 34.746094 -33.554688 C 33.496094 -30.007812 31.917969 -24.910156 30.753906 -21.453125 C 28.582031 -15.398438 24.226562 -12.507812 18.714844 -12.445312 C 14.667969 -12.398438 12.230469 -14.78125 12.1875 -18.566406 C 12.171875 -19.945312 12.496094 -21.585938 13.078125 -23.316406 L 23.160156 -52.621094 C 25.328125 -58.933594 30.378906 -61.488281 33.734375 -61.527344 C 37.867188 -61.574219 38.675781 -58.742188 38.695312 -57.019531 C 38.742188 -52.800781 42.128906 -50.601562 45.828125 -50.644531 C 49.359375 -50.683594 52.777344 -53.050781 52.707031 -58.992188 Z M 18.449219 9.34375 L 16.363281 15.226562 C 15.195312 18.425781 12.546875 20.089844 10.046875 20.121094 C 8.066406 20.144531 7.105469 18.949219 7.089844 17.398438 C 7.035156 12.835938 12.953125 10.785156 18.449219 9.34375 Z M 18.449219 9.34375 "/></g></g></g><g fill="#fd6155" fill-opacity="0.302"><g transform="translate(174.519864, 244.186287)"><g><path d="M 53.648438 -29.722656 C 51.238281 -29.695312 48.585938 -28.203125 47.589844 -24.917969 C 44.355469 -14.289062 38.972656 -10.695312 35.097656 -10.652344 C 33.632812 -10.636719 32.761719 -11.398438 32.746094 -12.777344 C 32.738281 -13.464844 32.902344 -14.328125 33.148438 -15.277344 L 42.46875 -43.285156 C 42.804688 -44.324219 42.964844 -45.273438 42.953125 -46.132812 C 42.910156 -49.921875 39.789062 -51.867188 36.601562 -51.828125 C 34.191406 -51.800781 31.707031 -50.652344 30.355469 -48.484375 C 28.535156 -49.585938 25.160156 -50.835938 20.769531 -50.785156 C 15.085938 -50.722656 8.925781 -47.550781 6.675781 -40.894531 L -1.152344 -17.640625 C -1.648438 -16.082031 -1.976562 -14.53125 -1.957031 -12.980469 C -1.875 -5.832031 3.960938 -0.046875 11.539062 -0.132812 C 15.585938 -0.179688 19.695312 -2.035156 22.847656 -4.914062 C 25.648438 -0.984375 31.769531 -0.367188 34.355469 -0.394531 C 41.5 -0.476562 51.015625 -4.203125 56.363281 -18.214844 C 57.53125 -21.589844 58.453125 -23.75 58.4375 -25.300781 C 58.402344 -28.230469 56.144531 -29.753906 53.648438 -29.722656 Z M 25.226562 -30.257812 L 21.242188 -17.382812 C 19.496094 -11.761719 16.242188 -10.433594 14.433594 -10.414062 C 12.539062 -10.390625 11.578125 -11.585938 11.554688 -13.566406 C 11.542969 -14.6875 11.789062 -15.722656 12.039062 -16.5 L 17.347656 -33.871094 C 18.921875 -39.140625 21.328125 -39.855469 22.703125 -39.871094 C 24.339844 -39.890625 26.167969 -38.277344 26.199219 -35.347656 C 26.214844 -34.058594 25.890625 -32.417969 25.226562 -30.257812 Z M 25.226562 -30.257812 "/></g></g></g><g fill="#fd6155" fill-opacity="0.302"><g transform="translate(219.720436, 243.665307)"><g><path d="M 47.757812 -25.351562 C 44.089844 -14.976562 39.402344 -10.703125 35.355469 -10.65625 C 33.804688 -10.636719 32.933594 -11.402344 32.917969 -12.867188 C 32.910156 -13.46875 33.074219 -14.160156 33.324219 -15.023438 L 39.820312 -34.214844 C 40.402344 -35.941406 40.730469 -37.496094 40.710938 -38.960938 C 40.632812 -45.847656 34.71875 -50.945312 27.832031 -50.867188 C 24.472656 -50.828125 21.8125 -50.023438 19.59375 -48.363281 C 19.058594 -49.90625 16.894531 -50.742188 14.570312 -50.714844 C 12.160156 -50.6875 9.847656 -49.542969 9.015625 -47.121094 L -4.898438 -6.746094 C -5.148438 -5.96875 -5.226562 -5.277344 -5.21875 -4.589844 C -5.183594 -1.402344 -2.667969 0.203125 0.0898438 0.171875 C 3.101562 0.136719 6.523438 -1.796875 7.769531 -5.6875 C 10.6875 -14.074219 14.683594 -25.917969 17.515625 -34.214844 C 19.792969 -38.546875 22.78125 -40.648438 25.191406 -40.675781 C 26.742188 -40.695312 27.875 -39.675781 27.890625 -38.039062 C 27.898438 -37.433594 27.734375 -36.660156 27.488281 -35.878906 L 21.40625 -18.070312 C 20.738281 -16.082031 20.332031 -14.183594 20.351562 -12.375 C 20.441406 -4.453125 27.035156 -0.3125 34.355469 -0.394531 C 43.136719 -0.496094 52.453125 -6.546875 58.199219 -23.402344 C 58.449219 -24.097656 58.613281 -24.785156 58.605469 -25.390625 C 58.574219 -28.144531 56.0625 -29.578125 53.480469 -29.550781 C 51.152344 -29.523438 48.585938 -28.203125 47.757812 -25.351562 Z M 47.757812 -25.351562 "/></g></g></g><g fill="#fd6155" fill-opacity="0.302"><g transform="translate(264.921017, 243.144327)"><g><path d="M 53.648438 -29.722656 C 51.238281 -29.695312 48.585938 -28.203125 47.589844 -24.917969 C 44.355469 -14.289062 38.972656 -10.695312 35.097656 -10.652344 C 33.632812 -10.636719 32.761719 -11.398438 32.746094 -12.777344 C 32.738281 -13.464844 32.902344 -14.328125 33.148438 -15.277344 L 42.46875 -43.285156 C 42.804688 -44.324219 42.964844 -45.273438 42.953125 -46.132812 C 42.910156 -49.921875 39.789062 -51.867188 36.601562 -51.828125 C 34.191406 -51.800781 31.707031 -50.652344 30.355469 -48.484375 C 28.535156 -49.585938 25.160156 -50.835938 20.769531 -50.785156 C 15.085938 -50.722656 8.925781 -47.550781 6.675781 -40.894531 L -1.152344 -17.640625 C -1.648438 -16.082031 -1.976562 -14.53125 -1.957031 -12.980469 C -1.875 -5.832031 3.960938 -0.046875 11.539062 -0.132812 C 15.585938 -0.179688 19.695312 -2.035156 22.847656 -4.914062 C 25.648438 -0.984375 31.769531 -0.367188 34.355469 -0.394531 C 41.5 -0.476562 51.015625 -4.203125 56.363281 -18.214844 C 57.53125 -21.589844 58.453125 -23.75 58.4375 -25.300781 C 58.402344 -28.230469 56.144531 -29.753906 53.648438 -29.722656 Z M 25.226562 -30.257812 L 21.242188 -17.382812 C 19.496094 -11.761719 16.242188 -10.433594 14.433594 -10.414062 C 12.539062 -10.390625 11.578125 -11.585938 11.554688 -13.566406 C 11.542969 -14.6875 11.789062 -15.722656 12.039062 -16.5 L 17.347656 -33.871094 C 18.921875 -39.140625 21.328125 -39.855469 22.703125 -39.871094 C 24.339844 -39.890625 26.167969 -38.277344 26.199219 -35.347656 C 26.214844 -34.058594 25.890625 -32.417969 25.226562 -30.257812 Z M 25.226562 -30.257812 "/></g></g></g><g fill="#fd6155" fill-opacity="0.302"><g transform="translate(310.121579, 242.623348)"><g><path d="M 35.550781 -23.660156 L 53.691406 -70.886719 C 56.417969 -80.992188 43.910156 -82.570312 41 -73.667969 L 24.835938 -26.894531 C 21.988281 -19.972656 32.710938 -15.964844 35.550781 -23.660156 Z M 24.289062 -14.402344 C 20.414062 -14.359375 17.265625 -11.222656 17.3125 -7.261719 C 17.355469 -3.386719 20.578125 -0.238281 24.453125 -0.28125 C 28.414062 -0.328125 31.5625 -3.550781 31.515625 -7.425781 C 31.472656 -11.386719 28.25 -14.449219 24.289062 -14.402344 Z M 24.289062 -14.402344 "/></g></g></g><g fill="#fd6155" fill-opacity="0.502"><g transform="translate(45.317277, 245.584187)"><g><path d="M 11.710938 -14.945312 L 20.957031 -42.175781 C 21.289062 -43.128906 21.453125 -43.992188 21.441406 -44.851562 C 21.402344 -48.382812 18.273438 -50.757812 15.085938 -50.722656 C 12.675781 -50.691406 10.109375 -49.199219 8.945312 -45.742188 L -1.132812 -16.003906 C -1.714844 -14.359375 -1.953125 -12.722656 -1.9375 -11.171875 C -1.871094 -5.316406 2.3125 -1.144531 7.921875 -0.0898438 C -2.554688 2.355469 -12.925781 6.78125 -12.800781 17.371094 C -12.707031 25.722656 -4.894531 31.140625 3.542969 31.046875 C 12.066406 30.945312 20.023438 26.292969 23.523438 16.261719 C 24.6875 12.632812 26.019531 8.828125 27.273438 5.28125 C 39.539062 1.265625 52.117188 -5.59375 57.851562 -23.746094 C 58.101562 -24.4375 58.179688 -25.125 58.171875 -25.730469 C 58.140625 -28.65625 55.878906 -30.351562 53.296875 -30.324219 C 50.972656 -30.296875 48.492188 -28.804688 47.328125 -25.429688 C 44.242188 -16.613281 38.53125 -11.378906 31.855469 -7.859375 L 43.59375 -43.042969 C 43.84375 -43.820312 43.921875 -44.507812 43.914062 -45.113281 C 43.871094 -48.640625 40.746094 -51.015625 37.558594 -50.980469 C 35.148438 -50.953125 32.582031 -49.457031 31.417969 -46 L 21.851562 -16.785156 C 19.148438 -12.105469 16.15625 -10.347656 13.832031 -10.320312 C 12.28125 -10.300781 11.324219 -11.238281 11.304688 -12.789062 C 11.296875 -13.390625 11.460938 -14.167969 11.710938 -14.945312 Z M 11.5625 9.425781 L 9.5625 15.304688 C 8.394531 18.503906 5.742188 20.167969 3.160156 20.199219 C 1.179688 20.222656 0.304688 19.027344 0.289062 17.476562 C 0.28125 16.960938 0.359375 16.269531 0.609375 15.664062 C 1.78125 12.636719 5.980469 10.953125 11.5625 9.425781 Z M 11.5625 9.425781 "/></g></g></g><g fill="#fd6155" fill-opacity="0.502"><g transform="translate(90.087373, 245.068168)"><g/></g></g><g fill="#fd6155" fill-opacity="0.502"><g transform="translate(122.976166, 244.689094)"><g><path d="M 52.707031 -58.992188 C 52.609375 -67.773438 44.855469 -75.261719 33.835938 -75.132812 C 25.3125 -75.035156 14.859375 -70.351562 10.367188 -56.953125 L -0.121094 -25.574219 C -1.121094 -22.632812 -1.433594 -19.875 -1.40625 -17.292969 C -1.289062 -7.304688 5.671875 -1.097656 15.410156 -0.175781 C 3.050781 3.152344 -6.039062 6.527344 -5.914062 17.289062 C -5.828125 24.695312 0.273438 31.082031 10.433594 30.964844 C 18.957031 30.867188 26.824219 26.214844 30.324219 16.183594 C 31.488281 12.554688 32.910156 8.75 34.160156 5.203125 C 46.425781 1.1875 59.007812 -5.675781 64.652344 -23.824219 C 64.902344 -24.601562 64.980469 -25.289062 64.972656 -25.894531 C 64.941406 -28.734375 62.597656 -30.429688 60.097656 -30.402344 C 57.773438 -30.375 55.292969 -28.882812 54.128906 -25.511719 C 51.128906 -16.605469 45.335938 -11.371094 38.574219 -7.851562 L 48.011719 -33.1875 C 48.761719 -35.4375 49.253906 -37.421875 49.234375 -39.058594 C 49.207031 -41.46875 48.070312 -43.179688 44.875 -43.917969 C 44.011719 -44.164062 43.148438 -44.242188 42.460938 -44.234375 C 38.070312 -44.183594 37.171875 -39.867188 34.746094 -33.554688 C 33.496094 -30.007812 31.917969 -24.910156 30.753906 -21.453125 C 28.582031 -15.398438 24.226562 -12.507812 18.714844 -12.445312 C 14.667969 -12.398438 12.230469 -14.78125 12.1875 -18.566406 C 12.171875 -19.945312 12.496094 -21.585938 13.078125 -23.316406 L 23.160156 -52.621094 C 25.328125 -58.933594 30.378906 -61.488281 33.734375 -61.527344 C 37.867188 -61.574219 38.675781 -58.742188 38.695312 -57.019531 C 38.742188 -52.800781 42.128906 -50.601562 45.828125 -50.644531 C 49.359375 -50.683594 52.777344 -53.050781 52.707031 -58.992188 Z M 18.449219 9.34375 L 16.363281 15.226562 C 15.195312 18.425781 12.546875 20.089844 10.046875 20.121094 C 8.066406 20.144531 7.105469 18.949219 7.089844 17.398438 C 7.035156 12.835938 12.953125 10.785156 18.449219 9.34375 Z M 18.449219 9.34375 "/></g></g></g><g fill="#fd6155" fill-opacity="0.502"><g transform="translate(174.461772, 244.095673)"><g><path d="M 53.648438 -29.722656 C 51.238281 -29.695312 48.585938 -28.203125 47.589844 -24.917969 C 44.355469 -14.289062 38.972656 -10.695312 35.097656 -10.652344 C 33.632812 -10.636719 32.761719 -11.398438 32.746094 -12.777344 C 32.738281 -13.464844 32.902344 -14.328125 33.148438 -15.277344 L 42.46875 -43.285156 C 42.804688 -44.324219 42.964844 -45.273438 42.953125 -46.132812 C 42.910156 -49.921875 39.789062 -51.867188 36.601562 -51.828125 C 34.191406 -51.800781 31.707031 -50.652344 30.355469 -48.484375 C 28.535156 -49.585938 25.160156 -50.835938 20.769531 -50.785156 C 15.085938 -50.722656 8.925781 -47.550781 6.675781 -40.894531 L -1.152344 -17.640625 C -1.648438 -16.082031 -1.976562 -14.53125 -1.957031 -12.980469 C -1.875 -5.832031 3.960938 -0.046875 11.539062 -0.132812 C 15.585938 -0.179688 19.695312 -2.035156 22.847656 -4.914062 C 25.648438 -0.984375 31.769531 -0.367188 34.355469 -0.394531 C 41.5 -0.476562 51.015625 -4.203125 56.363281 -18.214844 C 57.53125 -21.589844 58.453125 -23.75 58.4375 -25.300781 C 58.402344 -28.230469 56.144531 -29.753906 53.648438 -29.722656 Z M 25.226562 -30.257812 L 21.242188 -17.382812 C 19.496094 -11.761719 16.242188 -10.433594 14.433594 -10.414062 C 12.539062 -10.390625 11.578125 -11.585938 11.554688 -13.566406 C 11.542969 -14.6875 11.789062 -15.722656 12.039062 -16.5 L 17.347656 -33.871094 C 18.921875 -39.140625 21.328125 -39.855469 22.703125 -39.871094 C 24.339844 -39.890625 26.167969 -38.277344 26.199219 -35.347656 C 26.214844 -34.058594 25.890625 -32.417969 25.226562 -30.257812 Z M 25.226562 -30.257812 "/></g></g></g><g fill="#fd6155" fill-opacity="0.502"><g transform="translate(219.662344, 243.574693)"><g><path d="M 47.757812 -25.351562 C 44.089844 -14.976562 39.402344 -10.703125 35.355469 -10.65625 C 33.804688 -10.636719 32.933594 -11.402344 32.917969 -12.867188 C 32.910156 -13.46875 33.074219 -14.160156 33.324219 -15.023438 L 39.820312 -34.214844 C 40.402344 -35.941406 40.730469 -37.496094 40.710938 -38.960938 C 40.632812 -45.847656 34.71875 -50.945312 27.832031 -50.867188 C 24.472656 -50.828125 21.8125 -50.023438 19.59375 -48.363281 C 19.058594 -49.90625 16.894531 -50.742188 14.570312 -50.714844 C 12.160156 -50.6875 9.847656 -49.542969 9.015625 -47.121094 L -4.898438 -6.746094 C -5.148438 -5.96875 -5.226562 -5.277344 -5.21875 -4.589844 C -5.183594 -1.402344 -2.667969 0.203125 0.0898438 0.171875 C 3.101562 0.136719 6.523438 -1.796875 7.769531 -5.6875 C 10.6875 -14.074219 14.683594 -25.917969 17.515625 -34.214844 C 19.792969 -38.546875 22.78125 -40.648438 25.191406 -40.675781 C 26.742188 -40.695312 27.875 -39.675781 27.890625 -38.039062 C 27.898438 -37.433594 27.734375 -36.660156 27.488281 -35.878906 L 21.40625 -18.070312 C 20.738281 -16.082031 20.332031 -14.183594 20.351562 -12.375 C 20.441406 -4.453125 27.035156 -0.3125 34.355469 -0.394531 C 43.136719 -0.496094 52.453125 -6.546875 58.199219 -23.402344 C 58.449219 -24.097656 58.613281 -24.785156 58.605469 -25.390625 C 58.574219 -28.144531 56.0625 -29.578125 53.480469 -29.550781 C 51.152344 -29.523438 48.585938 -28.203125 47.757812 -25.351562 Z M 47.757812 -25.351562 "/></g></g></g><g fill="#fd6155" fill-opacity="0.502"><g transform="translate(264.862925, 243.053713)"><g><path d="M 53.648438 -29.722656 C 51.238281 -29.695312 48.585938 -28.203125 47.589844 -24.917969 C 44.355469 -14.289062 38.972656 -10.695312 35.097656 -10.652344 C 33.632812 -10.636719 32.761719 -11.398438 32.746094 -12.777344 C 32.738281 -13.464844 32.902344 -14.328125 33.148438 -15.277344 L 42.46875 -43.285156 C 42.804688 -44.324219 42.964844 -45.273438 42.953125 -46.132812 C 42.910156 -49.921875 39.789062 -51.867188 36.601562 -51.828125 C 34.191406 -51.800781 31.707031 -50.652344 30.355469 -48.484375 C 28.535156 -49.585938 25.160156 -50.835938 20.769531 -50.785156 C 15.085938 -50.722656 8.925781 -47.550781 6.675781 -40.894531 L -1.152344 -17.640625 C -1.648438 -16.082031 -1.976562 -14.53125 -1.957031 -12.980469 C -1.875 -5.832031 3.960938 -0.046875 11.539062 -0.132812 C 15.585938 -0.179688 19.695312 -2.035156 22.847656 -4.914062 C 25.648438 -0.984375 31.769531 -0.367188 34.355469 -0.394531 C 41.5 -0.476562 51.015625 -4.203125 56.363281 -18.214844 C 57.53125 -21.589844 58.453125 -23.75 58.4375 -25.300781 C 58.402344 -28.230469 56.144531 -29.753906 53.648438 -29.722656 Z M 25.226562 -30.257812 L 21.242188 -17.382812 C 19.496094 -11.761719 16.242188 -10.433594 14.433594 -10.414062 C 12.539062 -10.390625 11.578125 -11.585938 11.554688 -13.566406 C 11.542969 -14.6875 11.789062 -15.722656 12.039062 -16.5 L 17.347656 -33.871094 C 18.921875 -39.140625 21.328125 -39.855469 22.703125 -39.871094 C 24.339844 -39.890625 26.167969 -38.277344 26.199219 -35.347656 C 26.214844 -34.058594 25.890625 -32.417969 25.226562 -30.257812 Z M 25.226562 -30.257812 "/></g></g></g><g fill="#fd6155" fill-opacity="0.502"><g transform="translate(310.063487, 242.532733)"><g><path d="M 35.550781 -23.660156 L 53.691406 -70.886719 C 56.417969 -80.992188 43.910156 -82.570312 41 -73.667969 L 24.835938 -26.894531 C 21.988281 -19.972656 32.710938 -15.964844 35.550781 -23.660156 Z M 24.289062 -14.402344 C 20.414062 -14.359375 17.265625 -11.222656 17.3125 -7.261719 C 17.355469 -3.386719 20.578125 -0.238281 24.453125 -0.28125 C 28.414062 -0.328125 31.5625 -3.550781 31.515625 -7.425781 C 31.472656 -11.386719 28.25 -14.449219 24.289062 -14.402344 Z M 24.289062 -14.402344 "/></g></g></g><g fill="#f6f3e4" fill-opacity="1"><g transform="translate(45.259192, 245.49357)"><g><path d="M 11.710938 -14.945312 L 20.957031 -42.175781 C 21.289062 -43.128906 21.453125 -43.992188 21.441406 -44.851562 C 21.402344 -48.382812 18.273438 -50.757812 15.085938 -50.722656 C 12.675781 -50.691406 10.109375 -49.199219 8.945312 -45.742188 L -1.132812 -16.003906 C -1.714844 -14.359375 -1.953125 -12.722656 -1.9375 -11.171875 C -1.871094 -5.316406 2.3125 -1.144531 7.921875 -0.0898438 C -2.554688 2.355469 -12.925781 6.78125 -12.800781 17.371094 C -12.707031 25.722656 -4.894531 31.140625 3.542969 31.046875 C 12.066406 30.945312 20.023438 26.292969 23.523438 16.261719 C 24.6875 12.632812 26.019531 8.828125 27.273438 5.28125 C 39.539062 1.265625 52.117188 -5.59375 57.851562 -23.746094 C 58.101562 -24.4375 58.179688 -25.125 58.171875 -25.730469 C 58.140625 -28.65625 55.878906 -30.351562 53.296875 -30.324219 C 50.972656 -30.296875 48.492188 -28.804688 47.328125 -25.429688 C 44.242188 -16.613281 38.53125 -11.378906 31.855469 -7.859375 L 43.59375 -43.042969 C 43.84375 -43.820312 43.921875 -44.507812 43.914062 -45.113281 C 43.871094 -48.640625 40.746094 -51.015625 37.558594 -50.980469 C 35.148438 -50.953125 32.582031 -49.457031 31.417969 -46 L 21.851562 -16.785156 C 19.148438 -12.105469 16.15625 -10.347656 13.832031 -10.320312 C 12.28125 -10.300781 11.324219 -11.238281 11.304688 -12.789062 C 11.296875 -13.390625 11.460938 -14.167969 11.710938 -14.945312 Z M 11.5625 9.425781 L 9.5625 15.304688 C 8.394531 18.503906 5.742188 20.167969 3.160156 20.199219 C 1.179688 20.222656 0.304688 19.027344 0.289062 17.476562 C 0.28125 16.960938 0.359375 16.269531 0.609375 15.664062 C 1.78125 12.636719 5.980469 10.953125 11.5625 9.425781 Z M 11.5625 9.425781 "/></g></g></g><g fill="#f6f3e4" fill-opacity="1"><g transform="translate(90.029288, 244.977552)"><g/></g></g><g fill="#f6f3e4" fill-opacity="1"><g transform="translate(122.918082, 244.598477)"><g><path d="M 52.707031 -58.992188 C 52.609375 -67.773438 44.855469 -75.261719 33.835938 -75.132812 C 25.3125 -75.035156 14.859375 -70.351562 10.367188 -56.953125 L -0.121094 -25.574219 C -1.121094 -22.632812 -1.433594 -19.875 -1.40625 -17.292969 C -1.289062 -7.304688 5.671875 -1.097656 15.410156 -0.175781 C 3.050781 3.152344 -6.039062 6.527344 -5.914062 17.289062 C -5.828125 24.695312 0.273438 31.082031 10.433594 30.964844 C 18.957031 30.867188 26.824219 26.214844 30.324219 16.183594 C 31.488281 12.554688 32.910156 8.75 34.160156 5.203125 C 46.425781 1.1875 59.007812 -5.675781 64.652344 -23.824219 C 64.902344 -24.601562 64.980469 -25.289062 64.972656 -25.894531 C 64.941406 -28.734375 62.597656 -30.429688 60.097656 -30.402344 C 57.773438 -30.375 55.292969 -28.882812 54.128906 -25.511719 C 51.128906 -16.605469 45.335938 -11.371094 38.574219 -7.851562 L 48.011719 -33.1875 C 48.761719 -35.4375 49.253906 -37.421875 49.234375 -39.058594 C 49.207031 -41.46875 48.070312 -43.179688 44.875 -43.917969 C 44.011719 -44.164062 43.148438 -44.242188 42.460938 -44.234375 C 38.070312 -44.183594 37.171875 -39.867188 34.746094 -33.554688 C 33.496094 -30.007812 31.917969 -24.910156 30.753906 -21.453125 C 28.582031 -15.398438 24.226562 -12.507812 18.714844 -12.445312 C 14.667969 -12.398438 12.230469 -14.78125 12.1875 -18.566406 C 12.171875 -19.945312 12.496094 -21.585938 13.078125 -23.316406 L 23.160156 -52.621094 C 25.328125 -58.933594 30.378906 -61.488281 33.734375 -61.527344 C 37.867188 -61.574219 38.675781 -58.742188 38.695312 -57.019531 C 38.742188 -52.800781 42.128906 -50.601562 45.828125 -50.644531 C 49.359375 -50.683594 52.777344 -53.050781 52.707031 -58.992188 Z M 18.449219 9.34375 L 16.363281 15.226562 C 15.195312 18.425781 12.546875 20.089844 10.046875 20.121094 C 8.066406 20.144531 7.105469 18.949219 7.089844 17.398438 C 7.035156 12.835938 12.953125 10.785156 18.449219 9.34375 Z M 18.449219 9.34375 "/></g></g></g><g fill="#f6f3e4" fill-opacity="1"><g transform="translate(174.403687, 244.005056)"><g><path d="M 53.648438 -29.722656 C 51.238281 -29.695312 48.585938 -28.203125 47.589844 -24.917969 C 44.355469 -14.289062 38.972656 -10.695312 35.097656 -10.652344 C 33.632812 -10.636719 32.761719 -11.398438 32.746094 -12.777344 C 32.738281 -13.464844 32.902344 -14.328125 33.148438 -15.277344 L 42.46875 -43.285156 C 42.804688 -44.324219 42.964844 -45.273438 42.953125 -46.132812 C 42.910156 -49.921875 39.789062 -51.867188 36.601562 -51.828125 C 34.191406 -51.800781 31.707031 -50.652344 30.355469 -48.484375 C 28.535156 -49.585938 25.160156 -50.835938 20.769531 -50.785156 C 15.085938 -50.722656 8.925781 -47.550781 6.675781 -40.894531 L -1.152344 -17.640625 C -1.648438 -16.082031 -1.976562 -14.53125 -1.957031 -12.980469 C -1.875 -5.832031 3.960938 -0.046875 11.539062 -0.132812 C 15.585938 -0.179688 19.695312 -2.035156 22.847656 -4.914062 C 25.648438 -0.984375 31.769531 -0.367188 34.355469 -0.394531 C 41.5 -0.476562 51.015625 -4.203125 56.363281 -18.214844 C 57.53125 -21.589844 58.453125 -23.75 58.4375 -25.300781 C 58.402344 -28.230469 56.144531 -29.753906 53.648438 -29.722656 Z M 25.226562 -30.257812 L 21.242188 -17.382812 C 19.496094 -11.761719 16.242188 -10.433594 14.433594 -10.414062 C 12.539062 -10.390625 11.578125 -11.585938 11.554688 -13.566406 C 11.542969 -14.6875 11.789062 -15.722656 12.039062 -16.5 L 17.347656 -33.871094 C 18.921875 -39.140625 21.328125 -39.855469 22.703125 -39.871094 C 24.339844 -39.890625 26.167969 -38.277344 26.199219 -35.347656 C 26.214844 -34.058594 25.890625 -32.417969 25.226562 -30.257812 Z M 25.226562 -30.257812 "/></g></g></g><g fill="#f6f3e4" fill-opacity="1"><g transform="translate(219.604259, 243.484076)"><g><path d="M 47.757812 -25.351562 C 44.089844 -14.976562 39.402344 -10.703125 35.355469 -10.65625 C 33.804688 -10.636719 32.933594 -11.402344 32.917969 -12.867188 C 32.910156 -13.46875 33.074219 -14.160156 33.324219 -15.023438 L 39.820312 -34.214844 C 40.402344 -35.941406 40.730469 -37.496094 40.710938 -38.960938 C 40.632812 -45.847656 34.71875 -50.945312 27.832031 -50.867188 C 24.472656 -50.828125 21.8125 -50.023438 19.59375 -48.363281 C 19.058594 -49.90625 16.894531 -50.742188 14.570312 -50.714844 C 12.160156 -50.6875 9.847656 -49.542969 9.015625 -47.121094 L -4.898438 -6.746094 C -5.148438 -5.96875 -5.226562 -5.277344 -5.21875 -4.589844 C -5.183594 -1.402344 -2.667969 0.203125 0.0898438 0.171875 C 3.101562 0.136719 6.523438 -1.796875 7.769531 -5.6875 C 10.6875 -14.074219 14.683594 -25.917969 17.515625 -34.214844 C 19.792969 -38.546875 22.78125 -40.648438 25.191406 -40.675781 C 26.742188 -40.695312 27.875 -39.675781 27.890625 -38.039062 C 27.898438 -37.433594 27.734375 -36.660156 27.488281 -35.878906 L 21.40625 -18.070312 C 20.738281 -16.082031 20.332031 -14.183594 20.351562 -12.375 C 20.441406 -4.453125 27.035156 -0.3125 34.355469 -0.394531 C 43.136719 -0.496094 52.453125 -6.546875 58.199219 -23.402344 C 58.449219 -24.097656 58.613281 -24.785156 58.605469 -25.390625 C 58.574219 -28.144531 56.0625 -29.578125 53.480469 -29.550781 C 51.152344 -29.523438 48.585938 -28.203125 47.757812 -25.351562 Z M 47.757812 -25.351562 "/></g></g></g><g fill="#f6f3e4" fill-opacity="1"><g transform="translate(264.80484, 242.963096)"><g><path d="M 53.648438 -29.722656 C 51.238281 -29.695312 48.585938 -28.203125 47.589844 -24.917969 C 44.355469 -14.289062 38.972656 -10.695312 35.097656 -10.652344 C 33.632812 -10.636719 32.761719 -11.398438 32.746094 -12.777344 C 32.738281 -13.464844 32.902344 -14.328125 33.148438 -15.277344 L 42.46875 -43.285156 C 42.804688 -44.324219 42.964844 -45.273438 42.953125 -46.132812 C 42.910156 -49.921875 39.789062 -51.867188 36.601562 -51.828125 C 34.191406 -51.800781 31.707031 -50.652344 30.355469 -48.484375 C 28.535156 -49.585938 25.160156 -50.835938 20.769531 -50.785156 C 15.085938 -50.722656 8.925781 -47.550781 6.675781 -40.894531 L -1.152344 -17.640625 C -1.648438 -16.082031 -1.976562 -14.53125 -1.957031 -12.980469 C -1.875 -5.832031 3.960938 -0.046875 11.539062 -0.132812 C 15.585938 -0.179688 19.695312 -2.035156 22.847656 -4.914062 C 25.648438 -0.984375 31.769531 -0.367188 34.355469 -0.394531 C 41.5 -0.476562 51.015625 -4.203125 56.363281 -18.214844 C 57.53125 -21.589844 58.453125 -23.75 58.4375 -25.300781 C 58.402344 -28.230469 56.144531 -29.753906 53.648438 -29.722656 Z M 25.226562 -30.257812 L 21.242188 -17.382812 C 19.496094 -11.761719 16.242188 -10.433594 14.433594 -10.414062 C 12.539062 -10.390625 11.578125 -11.585938 11.554688 -13.566406 C 11.542969 -14.6875 11.789062 -15.722656 12.039062 -16.5 L 17.347656 -33.871094 C 18.921875 -39.140625 21.328125 -39.855469 22.703125 -39.871094 C 24.339844 -39.890625 26.167969 -38.277344 26.199219 -35.347656 C 26.214844 -34.058594 25.890625 -32.417969 25.226562 -30.257812 Z M 25.226562 -30.257812 "/></g></g></g><g fill="#f6f3e4" fill-opacity="1"><g transform="translate(310.005403, 242.442116)"><g><path d="M 35.550781 -23.660156 L 53.691406 -70.886719 C 56.417969 -80.992188 43.910156 -82.570312 41 -73.667969 L 24.835938 -26.894531 C 21.988281 -19.972656 32.710938 -15.964844 35.550781 -23.660156 Z M 24.289062 -14.402344 C 20.414062 -14.359375 17.265625 -11.222656 17.3125 -7.261719 C 17.355469 -3.386719 20.578125 -0.238281 24.453125 -0.28125 C 28.414062 -0.328125 31.5625 -3.550781 31.515625 -7.425781 C 31.472656 -11.386719 28.25 -14.449219 24.289062 -14.402344 Z M 24.289062 -14.402344 "/></g></g></g></svg>